<?xml version="1.0" standalone="no"?>
<!DOCTYPE svg PUBLIC "-//W3C//DTD SVG 20010904//EN"
 "http://www.w3.org/TR/2001/REC-SVG-20010904/DTD/svg10.dtd">
<svg version="1.0" xmlns="http://www.w3.org/2000/svg"
 width="550.000000pt" height="200.000000pt" viewBox="0 0 550.000000 200.000000"
 preserveAspectRatio="xMidYMid meet">
<metadata>
Created by potrace 1.16, written by Peter Selinger 2001-2019
</metadata>
<g transform="translate(0.000000,200.000000) scale(0.100000,-0.100000)"
fill="#000000" stroke="none">
<path d="M2569 1361 c-104 -33 -195 -115 -239 -213 -28 -65 -42 -175 -31 -253
20 -138 103 -251 219 -296 75 -30 248 -33 335 -6 l57 18 0 78 0 78 -67 -23
c-119 -41 -212 -29 -288 38 -102 90 -101 294 1 390 45 42 95 58 176 58 65 -1
96 -8 161 -35 16 -7 18 -1 15 76 l-3 83 -40 12 c-62 19 -230 16 -296 -5z"/>
<path d="M112 978 l3 -393 80 0 80 0 0 278 c0 235 2 276 13 260 8 -10 91 -135
185 -278 l172 -260 88 -3 87 -3 0 396 0 395 -80 0 -80 0 -2 -272 -3 -271 -175
269 -176 269 -97 3 -97 3 2 -393z"/>
<path d="M1002 978 l3 -393 233 -3 232 -2 0 70 0 70 -145 0 -145 0 0 95 0 95
125 0 125 0 0 70 0 70 -125 0 -125 0 0 90 0 90 135 0 135 0 0 70 0 70 -225 0
-225 0 2 -392z"/>
<path d="M1558 1338 c11 -18 63 -107 115 -197 l95 -164 -71 -111 c-39 -61 -94
-148 -124 -194 -29 -45 -53 -85 -53 -87 0 -3 45 -5 100 -5 l100 0 19 31 c11
18 48 88 83 156 l63 123 11 -32 c7 -18 41 -87 77 -153 l64 -120 101 -3 c56 -1
102 0 102 3 0 2 -54 93 -120 200 l-119 195 114 191 c63 104 115 192 115 195 0
2 -42 4 -94 4 l-94 0 -62 -116 c-34 -63 -67 -132 -75 -152 l-13 -37 -10 26
c-5 14 -37 82 -70 152 l-61 127 -106 0 -107 0 20 -32z"/>
<path d="M3050 975 l0 -395 85 0 85 0 0 165 0 165 165 0 165 0 0 -165 0 -166
88 3 87 3 3 393 2 392 -90 0 -90 0 0 -155 0 -155 -165 0 -165 0 0 155 0 155
-85 0 -85 0 0 -395z"/>
<path d="M3971 982 c-77 -214 -141 -392 -141 -396 0 -4 41 -5 92 -4 l91 3 30
88 29 87 142 0 143 0 27 -90 27 -90 95 0 c86 0 95 2 90 18 -4 9 -66 186 -140
392 l-133 375 -105 3 -105 3 -142 -389z m308 24 c17 -50 31 -96 31 -103 0 -10
-24 -13 -100 -13 -55 0 -100 3 -100 7 0 5 18 62 39 128 22 66 45 140 52 165
l11 45 18 -70 c10 -38 32 -110 49 -159z"/>
<path d="M4702 978 l3 -393 80 0 80 0 0 278 c0 236 2 276 13 260 8 -10 91
-135 185 -278 l172 -260 88 -3 87 -3 0 396 0 395 -80 0 -80 0 -2 -271 -3 -271
-175 271 -175 270 -98 0 -97 1 2 -392z"/>
</g>
</svg>
